Verenigde Staten
Animatie
75 minuten

geregisseerd door Cody Cameron
met de stemmen van Ciara Bravo, Karley Scott Collins en Cody Cameron

Het nieuwe avontuur brengt Boog, Elliot en de andere dierenvrienden van het bos naar een circustent. Wanneer Boogs vrienden het jaarlijkse uitstapje van de jongens afzeggen om tijd door te brengen met hun familie, besluit de teleurgestelde beer zelf op pad te gaan. Hij verwisselt van plaats met een grizzly die op hem lijkt en zo belandt hij midden in de ring van een groot circus. Daar valt hij als een blok voor een verleidelijke, Russische artieste, maar langzaamaan beseft Boog dat je misschien niet hoeft te kiezen tussen familie en vriendschap.

Torrent Info:

General
\Bureaublad\Baas In Eigen Bos 3 (Open Season 3) - DVDrip [AC-3 5.1 NL Gesproken] (Animatie, Komedie 201 XviD).avi
Format                           : AVI
Format/Info                      : Audio Video Interleave
File size                        : 999 MiB
Duration                         : 1h 11mn
Overall bit rate                 : 1 951 Kbps
Movie name                       : DVD_VOLUME.Title1.DVDRip
Director                         : Ik
Writing application              : Lavf51.19.0
Original source form/Name        : DVD_VOLUME

Video
ID                               : 0
Format                           : MPEG-4 Visual
Format profile                   : Simple@L3
Format settings, BVOP            : No
Format settings, QPel            : No
Format settings, GMC             : No warppoints
Format settings, Matrix          : Default (H.263)
Codec ID                         : XVID
Codec ID/Hint                    : XviD
Duration                         : 1h 11mn
Bit rate                         : 1 556 Kbps
Width                            : 1 024 pixels
Height                           : 576 pixels
Display aspect ratio             : 16:9
Frame rate                       : 25.000 fps
Color space                      : YUV
Chroma subsampling               : 4:2:0
Bit depth                        : 8 bits
Scan type                        : Progressive
Compression mode                 : Lossy
Bits/(Pixel*Frame)               : 0.106
Stream size                      : 796 MiB (80%)
Writing library                  : XviD 1.1.2 (UTC 2006-11-01)

Audio
ID                               : 1
Format                           : AC-3
Format/Info                      : Audio Coding 3
Mode extension                   : CM (complete main)
Codec ID                         : 2000
Duration                         : 1h 11mn
Bit rate mode                    : Constant
Bit rate                         : 384 Kbps
Channel(s)                       : 6 channels
Channel positions                : Front: L C R, Side: L R, LFE
Sampling rate                    : 48.0 KHz
Bit depth                        : 16 bits
Compression mode                 : Lossy
Stream size                      : 197 MiB (20%)
Alignment                        : Aligned on interleaves
Interleave, duration             : 32 ms (0.80 video frame)
Interleave, preload duration     : 32 ms

Moviemeter: http://www.moviemeter.nl/film/71838\
ImdB: http://www.imdb.com/title/tt1646926/